<svg xmlns="http://www.w3.org/2000/svg" xmlns:xlink="http://www.w3.org/1999/xlink" width="500" zoomAndPan="magnify" viewBox="0 0 375 374.999991" height="500" preserveAspectRatio="xMidYMid meet" version="1.0"><defs><g/></defs><g fill="#000000" fill-opacity="1"><g transform="translate(13.171879, 247.874984)"><g><path d="M 63.921875 -119.171875 C 79.109375 -119.171875 90.894531 -115.515625 99.28125 -108.203125 C 107.664062 -100.890625 111.859375 -90.601562 111.859375 -77.34375 C 111.859375 -63.289062 107.664062 -52.382812 99.28125 -44.625 C 90.894531 -36.863281 79.109375 -32.984375 63.921875 -32.984375 L 42.671875 -32.984375 L 42.671875 0 L 11.5625 0 L 11.5625 -119.171875 Z M 62.390625 -57.796875 C 68.734375 -57.796875 73.632812 -59.378906 77.09375 -62.546875 C 80.550781 -65.722656 82.28125 -70.316406 82.28125 -76.328125 C 82.28125 -82.109375 80.550781 -86.554688 77.09375 -89.671875 C 73.632812 -92.785156 68.734375 -94.34375 62.390625 -94.34375 L 42.671875 -94.34375 L 42.671875 -57.796875 Z M 62.390625 -57.796875 "/></g></g></g><g fill="#000000" fill-opacity="1"><g transform="translate(128.766537, 247.874984)"><g><path d="M 97.75 -78.703125 C 93.894531 -83.578125 89.300781 -87.457031 83.96875 -90.34375 C 78.644531 -93.238281 73.378906 -94.6875 68.171875 -94.6875 C 62.160156 -94.6875 56.691406 -93.1875 51.765625 -90.1875 C 46.835938 -87.1875 42.957031 -83.050781 40.125 -77.78125 C 37.289062 -72.507812 35.875 -66.644531 35.875 -60.1875 C 35.875 -53.71875 37.289062 -47.847656 40.125 -42.578125 C 42.957031 -37.316406 46.835938 -33.179688 51.765625 -30.171875 C 56.691406 -27.171875 62.160156 -25.671875 68.171875 -25.671875 C 73.046875 -25.671875 78.144531 -26.914062 83.46875 -29.40625 C 88.789062 -31.90625 93.550781 -35.304688 97.75 -39.609375 L 115.9375 -20.0625 C 109.476562 -13.257812 101.800781 -7.847656 92.90625 -3.828125 C 84.007812 0.191406 75.195312 2.203125 66.46875 2.203125 C 54.6875 2.203125 44.035156 -0.515625 34.515625 -5.953125 C 24.992188 -11.390625 17.507812 -18.8125 12.0625 -28.21875 C 6.625 -37.625 3.90625 -48.164062 3.90625 -59.84375 C 3.90625 -71.40625 6.679688 -81.832031 12.234375 -91.125 C 17.785156 -100.414062 25.40625 -107.722656 35.09375 -113.046875 C 44.789062 -118.378906 55.644531 -121.046875 67.65625 -121.046875 C 76.5 -121.046875 85.226562 -119.203125 93.84375 -115.515625 C 102.457031 -111.828125 109.765625 -106.8125 115.765625 -100.46875 Z M 97.75 -78.703125 "/></g></g></g><g fill="#000000" fill-opacity="1"><g transform="translate(246.401081, 247.874984)"><g><path d="M 73.09375 -93.15625 C 83.300781 -93.15625 91.4375 -89.984375 97.5 -83.640625 C 103.5625 -77.296875 106.59375 -68.738281 106.59375 -57.96875 L 106.59375 0 L 76.328125 0 L 76.328125 -49.296875 C 76.328125 -54.515625 74.9375 -58.625 72.15625 -61.625 C 69.382812 -64.625 65.5625 -66.125 60.6875 -66.125 C 55.132812 -66.007812 50.742188 -64.050781 47.515625 -60.25 C 44.285156 -56.457031 42.671875 -51.503906 42.671875 -45.390625 L 42.671875 0 L 12.40625 0 L 12.40625 -126.140625 L 42.671875 -126.140625 L 42.671875 -77.015625 C 45.953125 -82.335938 50.171875 -86.359375 55.328125 -89.078125 C 60.484375 -91.796875 66.40625 -93.15625 73.09375 -93.15625 Z M 73.09375 -93.15625 "/></g></g></g></svg>