<svg xmlns="http://www.w3.org/2000/svg" xmlns:xlink="http://www.w3.org/1999/xlink" width="200" zoomAndPan="magnify" viewBox="0 0 150 30.000001" height="40" preserveAspectRatio="xMidYMid meet" version="1.0"><defs><g/></defs><g fill="#ffffff" fill-opacity="1"><g transform="translate(6.605968, 21.531436)"><g><path d="M 7.265625 -13.5625 C 8.992188 -13.5625 10.335938 -13.144531 11.296875 -12.3125 C 12.253906 -11.476562 12.734375 -10.304688 12.734375 -8.796875 C 12.734375 -7.203125 12.253906 -5.960938 11.296875 -5.078125 C 10.335938 -4.191406 8.992188 -3.75 7.265625 -3.75 L 4.859375 -3.75 L 4.859375 0 L 1.3125 0 L 1.3125 -13.5625 Z M 7.09375 -6.578125 C 7.820312 -6.578125 8.378906 -6.753906 8.765625 -7.109375 C 9.160156 -7.472656 9.359375 -8 9.359375 -8.6875 C 9.359375 -9.34375 9.160156 -9.847656 8.765625 -10.203125 C 8.378906 -10.554688 7.820312 -10.734375 7.09375 -10.734375 L 4.859375 -10.734375 L 4.859375 -6.578125 Z M 7.09375 -6.578125 "/></g></g></g><g fill="#ffffff" fill-opacity="1"><g transform="translate(19.754421, 21.531436)"><g><path d="M 8.078125 -10.46875 L 11.53125 -10.46875 L 11.53125 0 L 8.078125 0 L 8.078125 -1.703125 C 7.367188 -0.492188 6.253906 0.125 4.734375 0.15625 C 3.597656 0.15625 2.691406 -0.207031 2.015625 -0.9375 C 1.335938 -1.664062 1 -2.632812 1 -3.84375 L 1 -10.46875 L 4.453125 -10.46875 L 4.453125 -4.84375 C 4.453125 -4.25 4.601562 -3.78125 4.90625 -3.4375 C 5.207031 -3.101562 5.613281 -2.9375 6.125 -2.9375 C 6.738281 -2.945312 7.21875 -3.164062 7.5625 -3.59375 C 7.90625 -4.03125 8.078125 -4.597656 8.078125 -5.296875 Z M 8.078125 -10.46875 "/></g></g></g><g fill="#ffffff" fill-opacity="1"><g transform="translate(32.593496, 21.531436)"><g><path d="M 5.921875 -10.578125 C 7.617188 -10.578125 8.925781 -10.070312 9.84375 -9.0625 C 10.757812 -8.0625 11.21875 -6.6875 11.21875 -4.9375 C 11.21875 -4.664062 11.210938 -4.457031 11.203125 -4.3125 L 3.921875 -4.3125 C 4.085938 -3.71875 4.378906 -3.257812 4.796875 -2.9375 C 5.210938 -2.625 5.71875 -2.46875 6.3125 -2.46875 C 6.757812 -2.46875 7.191406 -2.554688 7.609375 -2.734375 C 8.023438 -2.921875 8.410156 -3.191406 8.765625 -3.546875 L 10.5625 -1.734375 C 10.019531 -1.128906 9.363281 -0.671875 8.59375 -0.359375 C 7.832031 -0.046875 6.96875 0.109375 6 0.109375 C 4.875 0.109375 3.890625 -0.109375 3.046875 -0.546875 C 2.210938 -0.984375 1.570312 -1.597656 1.125 -2.390625 C 0.6875 -3.191406 0.46875 -4.125 0.46875 -5.1875 C 0.46875 -6.257812 0.691406 -7.203125 1.140625 -8.015625 C 1.585938 -8.835938 2.222656 -9.46875 3.046875 -9.90625 C 3.878906 -10.351562 4.835938 -10.578125 5.921875 -10.578125 Z M 7.875 -6.15625 C 7.875 -6.757812 7.695312 -7.242188 7.34375 -7.609375 C 6.988281 -7.972656 6.519531 -8.15625 5.9375 -8.15625 C 5.394531 -8.15625 4.941406 -7.972656 4.578125 -7.609375 C 4.210938 -7.253906 3.96875 -6.769531 3.84375 -6.15625 Z M 7.875 -6.15625 "/></g></g></g><g fill="#ffffff" fill-opacity="1"><g transform="translate(44.25308, 21.531436)"><g><path d="M 4.765625 -8.71875 C 5.117188 -9.332031 5.582031 -9.796875 6.15625 -10.109375 C 6.726562 -10.429688 7.382812 -10.59375 8.125 -10.59375 L 8.125 -7.453125 C 8.007812 -7.460938 7.835938 -7.46875 7.609375 -7.46875 C 6.796875 -7.46875 6.132812 -7.273438 5.625 -6.890625 C 5.125 -6.515625 4.835938 -6 4.765625 -5.34375 L 4.765625 0 L 1.3125 0 L 1.3125 -10.46875 L 4.765625 -10.46875 Z M 4.765625 -8.71875 "/></g></g></g><g fill="#ffffff" fill-opacity="1"><g transform="translate(52.567537, 21.531436)"><g><path d="M 8.125 -0.546875 C 7.738281 -0.328125 7.289062 -0.15625 6.78125 -0.03125 C 6.28125 0.09375 5.773438 0.15625 5.265625 0.15625 C 4.234375 0.15625 3.394531 -0.140625 2.75 -0.734375 C 2.113281 -1.328125 1.796875 -2.144531 1.796875 -3.1875 L 1.796875 -7.671875 L 0.34375 -7.671875 L 0.34375 -9.96875 L 1.796875 -9.96875 L 1.796875 -12.859375 L 5.21875 -12.859375 L 5.21875 -9.96875 L 7.9375 -9.96875 L 7.9375 -7.671875 L 5.21875 -7.671875 L 5.21875 -3.734375 C 5.21875 -2.992188 5.519531 -2.625 6.125 -2.625 C 6.5 -2.625 6.945312 -2.742188 7.46875 -2.984375 Z M 8.125 -0.546875 "/></g></g></g><g fill="#ffffff" fill-opacity="1"><g transform="translate(61.017352, 21.531436)"><g><path d="M 6.171875 -10.578125 C 7.304688 -10.578125 8.304688 -10.351562 9.171875 -9.90625 C 10.035156 -9.46875 10.703125 -8.84375 11.171875 -8.03125 C 11.648438 -7.226562 11.890625 -6.296875 11.890625 -5.234375 C 11.890625 -4.171875 11.648438 -3.234375 11.171875 -2.421875 C 10.703125 -1.617188 10.035156 -0.992188 9.171875 -0.546875 C 8.304688 -0.109375 7.304688 0.109375 6.171875 0.109375 C 5.035156 0.109375 4.035156 -0.109375 3.171875 -0.546875 C 2.304688 -0.992188 1.640625 -1.617188 1.171875 -2.421875 C 0.703125 -3.234375 0.46875 -4.171875 0.46875 -5.234375 C 0.46875 -6.296875 0.703125 -7.226562 1.171875 -8.03125 C 1.640625 -8.84375 2.304688 -9.46875 3.171875 -9.90625 C 4.035156 -10.351562 5.035156 -10.578125 6.171875 -10.578125 Z M 6.171875 -7.796875 C 5.503906 -7.796875 4.960938 -7.554688 4.546875 -7.078125 C 4.128906 -6.597656 3.921875 -5.972656 3.921875 -5.203125 C 3.921875 -4.421875 4.128906 -3.789062 4.546875 -3.3125 C 4.960938 -2.832031 5.503906 -2.59375 6.171875 -2.59375 C 6.859375 -2.59375 7.40625 -2.832031 7.8125 -3.3125 C 8.226562 -3.789062 8.4375 -4.421875 8.4375 -5.203125 C 8.4375 -5.972656 8.222656 -6.597656 7.796875 -7.078125 C 7.378906 -7.554688 6.835938 -7.796875 6.171875 -7.796875 Z M 6.171875 -7.796875 "/></g></g></g><g fill="#ffffff" fill-opacity="1"><g transform="translate(73.353692, 21.531436)"><g><path d="M 11.125 -8.953125 C 10.6875 -9.503906 10.160156 -9.945312 9.546875 -10.28125 C 8.941406 -10.613281 8.34375 -10.78125 7.75 -10.78125 C 7.070312 -10.78125 6.453125 -10.609375 5.890625 -10.265625 C 5.328125 -9.921875 4.882812 -9.445312 4.5625 -8.84375 C 4.238281 -8.25 4.078125 -7.582031 4.078125 -6.84375 C 4.078125 -6.113281 4.238281 -5.445312 4.5625 -4.84375 C 4.882812 -4.25 5.328125 -3.78125 5.890625 -3.4375 C 6.453125 -3.09375 7.070312 -2.921875 7.75 -2.921875 C 8.3125 -2.921875 8.894531 -3.0625 9.5 -3.34375 C 10.101562 -3.625 10.644531 -4.007812 11.125 -4.5 L 13.1875 -2.28125 C 12.457031 -1.507812 11.582031 -0.894531 10.5625 -0.4375 C 9.550781 0.0195312 8.550781 0.25 7.5625 0.25 C 6.21875 0.25 5.003906 -0.0546875 3.921875 -0.671875 C 2.835938 -1.296875 1.984375 -2.140625 1.359375 -3.203125 C 0.742188 -4.273438 0.4375 -5.476562 0.4375 -6.8125 C 0.4375 -8.125 0.753906 -9.304688 1.390625 -10.359375 C 2.023438 -11.421875 2.890625 -12.253906 3.984375 -12.859375 C 5.085938 -13.460938 6.328125 -13.765625 7.703125 -13.765625 C 8.703125 -13.765625 9.691406 -13.554688 10.671875 -13.140625 C 11.648438 -12.722656 12.484375 -12.15625 13.171875 -11.4375 Z M 11.125 -8.953125 "/></g></g></g><g fill="#ffffff" fill-opacity="1"><g transform="translate(86.734176, 21.531436)"><g><path d="M 8.3125 -10.59375 C 9.476562 -10.59375 10.40625 -10.234375 11.09375 -9.515625 C 11.78125 -8.796875 12.125 -7.820312 12.125 -6.59375 L 12.125 0 L 8.6875 0 L 8.6875 -5.609375 C 8.6875 -6.203125 8.523438 -6.671875 8.203125 -7.015625 C 7.890625 -7.359375 7.457031 -7.53125 6.90625 -7.53125 C 6.269531 -7.507812 5.769531 -7.28125 5.40625 -6.84375 C 5.039062 -6.414062 4.859375 -5.859375 4.859375 -5.171875 L 4.859375 0 L 1.40625 0 L 1.40625 -14.359375 L 4.859375 -14.359375 L 4.859375 -8.765625 C 5.234375 -9.367188 5.710938 -9.820312 6.296875 -10.125 C 6.878906 -10.4375 7.550781 -10.59375 8.3125 -10.59375 Z M 8.3125 -10.59375 "/></g></g></g><g fill="#ffffff" fill-opacity="1"><g transform="translate(99.863292, 21.531436)"><g><path d="M 5.921875 -10.578125 C 7.617188 -10.578125 8.925781 -10.070312 9.84375 -9.0625 C 10.757812 -8.0625 11.21875 -6.6875 11.21875 -4.9375 C 11.21875 -4.664062 11.210938 -4.457031 11.203125 -4.3125 L 3.921875 -4.3125 C 4.085938 -3.71875 4.378906 -3.257812 4.796875 -2.9375 C 5.210938 -2.625 5.71875 -2.46875 6.3125 -2.46875 C 6.757812 -2.46875 7.191406 -2.554688 7.609375 -2.734375 C 8.023438 -2.921875 8.410156 -3.191406 8.765625 -3.546875 L 10.5625 -1.734375 C 10.019531 -1.128906 9.363281 -0.671875 8.59375 -0.359375 C 7.832031 -0.046875 6.96875 0.109375 6 0.109375 C 4.875 0.109375 3.890625 -0.109375 3.046875 -0.546875 C 2.210938 -0.984375 1.570312 -1.597656 1.125 -2.390625 C 0.6875 -3.191406 0.46875 -4.125 0.46875 -5.1875 C 0.46875 -6.257812 0.691406 -7.203125 1.140625 -8.015625 C 1.585938 -8.835938 2.222656 -9.46875 3.046875 -9.90625 C 3.878906 -10.351562 4.835938 -10.578125 5.921875 -10.578125 Z M 7.875 -6.15625 C 7.875 -6.757812 7.695312 -7.242188 7.34375 -7.609375 C 6.988281 -7.972656 6.519531 -8.15625 5.9375 -8.15625 C 5.394531 -8.15625 4.941406 -7.972656 4.578125 -7.609375 C 4.210938 -7.253906 3.96875 -6.769531 3.84375 -6.15625 Z M 7.875 -6.15625 "/></g></g></g><g fill="#ffffff" fill-opacity="1"><g transform="translate(111.522876, 21.531436)"><g><path d="M 8.21875 -10.59375 C 9.363281 -10.59375 10.28125 -10.234375 10.96875 -9.515625 C 11.664062 -8.796875 12.015625 -7.820312 12.015625 -6.59375 L 12.015625 0 L 8.59375 0 L 8.59375 -5.609375 C 8.59375 -6.203125 8.429688 -6.671875 8.109375 -7.015625 C 7.785156 -7.359375 7.351562 -7.53125 6.8125 -7.53125 C 6.238281 -7.507812 5.769531 -7.316406 5.40625 -6.953125 C 5.039062 -6.597656 4.828125 -6.125 4.765625 -5.53125 L 4.765625 0 L 1.3125 0 L 1.3125 -10.46875 L 4.765625 -10.46875 L 4.765625 -8.765625 C 5.128906 -9.367188 5.601562 -9.820312 6.1875 -10.125 C 6.78125 -10.4375 7.457031 -10.59375 8.21875 -10.59375 Z M 8.21875 -10.59375 "/></g></g></g><g fill="#ffffff" fill-opacity="1"><g transform="translate(124.555308, 21.531436)"><g><path d="M 8.125 -0.546875 C 7.738281 -0.328125 7.289062 -0.15625 6.78125 -0.03125 C 6.28125 0.09375 5.773438 0.15625 5.265625 0.15625 C 4.234375 0.15625 3.394531 -0.140625 2.75 -0.734375 C 2.113281 -1.328125 1.796875 -2.144531 1.796875 -3.1875 L 1.796875 -7.671875 L 0.34375 -7.671875 L 0.34375 -9.96875 L 1.796875 -9.96875 L 1.796875 -12.859375 L 5.21875 -12.859375 L 5.21875 -9.96875 L 7.9375 -9.96875 L 7.9375 -7.671875 L 5.21875 -7.671875 L 5.21875 -3.734375 C 5.21875 -2.992188 5.519531 -2.625 6.125 -2.625 C 6.5 -2.625 6.945312 -2.742188 7.46875 -2.984375 Z M 8.125 -0.546875 "/></g></g></g><g fill="#ffffff" fill-opacity="1"><g transform="translate(133.005123, 21.531436)"><g><path d="M 6.03125 -10.59375 C 7.476562 -10.59375 8.597656 -10.257812 9.390625 -9.59375 C 10.191406 -8.9375 10.601562 -8.007812 10.625 -6.8125 L 10.625 0 L 7.234375 0 L 7.234375 -1.1875 C 6.535156 -0.289062 5.484375 0.15625 4.078125 0.15625 C 2.972656 0.15625 2.097656 -0.140625 1.453125 -0.734375 C 0.816406 -1.335938 0.5 -2.128906 0.5 -3.109375 C 0.5 -4.109375 0.84375 -4.882812 1.53125 -5.4375 C 2.226562 -5.988281 3.21875 -6.269531 4.5 -6.28125 L 7.234375 -6.28125 L 7.234375 -6.40625 C 7.234375 -6.90625 7.0625 -7.289062 6.71875 -7.5625 C 6.375 -7.832031 5.878906 -7.96875 5.234375 -7.96875 C 4.796875 -7.96875 4.300781 -7.894531 3.75 -7.75 C 3.207031 -7.613281 2.660156 -7.410156 2.109375 -7.140625 L 1.15625 -9.453125 C 2.007812 -9.847656 2.828125 -10.132812 3.609375 -10.3125 C 4.390625 -10.5 5.195312 -10.59375 6.03125 -10.59375 Z M 5.140625 -2.1875 C 5.660156 -2.1875 6.113281 -2.3125 6.5 -2.5625 C 6.882812 -2.8125 7.128906 -3.140625 7.234375 -3.546875 L 7.234375 -4.453125 L 5.1875 -4.453125 C 4.21875 -4.453125 3.734375 -4.085938 3.734375 -3.359375 C 3.734375 -3.003906 3.859375 -2.71875 4.109375 -2.5 C 4.359375 -2.289062 4.703125 -2.1875 5.140625 -2.1875 Z M 5.140625 -2.1875 "/></g></g></g></svg>